<svg xmlns="http://www.w3.org/2000/svg" width="145" height="145" viewBox="0 0 145 145">
    <g fill="none" fill-rule="evenodd">
        <circle cx="72.5" cy="72.5" r="72.5" fill="#F2F2F2"/>
        <g fill="#1D1D1B" fill-rule="nonzero" opacity=".065">
            <path d="M105.834 96.199c-.767-3.404-6.562-24.541-31.855-24.541-27.372 0-31.908 24.748-31.951 24.999A2.006 2.006 0 0 0 44.004 99h59.992a2.005 2.005 0 0 0 1.838-2.801zm-59.259-1.211c1.742-5.632 7.977-19.317 27.403-19.317s25.662 13.685 27.404 19.317H46.575zM73.977 67.895c9.063 0 16.436-7.377 16.436-16.447C90.412 42.379 83.04 35 73.977 35c-9.06 0-16.43 7.379-16.43 16.447 0 9.071 7.37 16.448 16.43 16.448zm0-28.883c6.854 0 12.428 5.578 12.428 12.436 0 6.856-5.573 12.436-12.428 12.436-6.849 0-12.422-5.579-12.422-12.436 0-6.858 5.573-12.436 12.422-12.436z"/>
        </g>
    </g>
</svg>
