<svg xmlns="http://www.w3.org/2000/svg" width="407" height="145" viewBox="0 0 407 145"><g transform="translate(0 0)"><g class="nc-icon-wrapper"><g fill="none" fill-rule="evenodd" stroke="#A7BF2E" stroke-linecap="round" stroke-linejoin="round" transform="translate(1 1)"><path d="M18 9c0 7-9 13-9 13S0 16 0 9a9 9 0 0 1 18 0z"/><circle cx="9" cy="9" r="3"/></g></g></g><g transform="translate(20 0)"><g class="nc-icon-wrapper" fill="#111111"><path fill="none" fill-rule="evenodd" stroke="#111111" stroke-linecap="round" stroke-linejoin="round" d="M20 16H0a3 3 0 0 0 3-3V8a7 7 0 0 1 14 0v5a3 3 0 0 0 3 3zm-8.27 4a2 2 0 0 1-3.46 0h3.46z"/></g></g><g transform="translate(40 0)"><g class="nc-icon-wrapper"><path fill="none" fill-rule="evenodd" stroke="#A7BF2E" stroke-linecap="round" stroke-linejoin="round" d="M20.888 15.92v3a2 2 0 0 1-2.18 2 19.79 19.79 0 0 1-8.63-3.07 19.5 19.5 0 0 1-6-6 19.79 19.79 0 0 1-3.07-8.67A2 2 0 0 1 2.998 1h3a2 2 0 0 1 2 1.72c.127.96.362 1.903.7 2.81a2 2 0 0 1-.45 2.11l-1.27 1.27a16 16 0 0 0 6 6l1.27-1.27a2 2 0 0 1 2.11-.45c.907.339 1.85.573 2.81.7a2 2 0 0 1 1.72 2.03z"/></g></g><g transform="translate(62 0)"><g class="nc-icon-wrapper"><g fill="none" fill-rule="evenodd" stroke="#A7BF2E" stroke-linecap="round" stroke-linejoin="round" transform="translate(1 1)"><path d="M0 8s4-8 11-8 11 8 11 8-4 8-11 8S0 8 0 8z"/><circle cx="11" cy="8" r="3"/></g></g></g><g transform="translate(86 0)"><g class="nc-icon-wrapper" fill="#111111"><path fill="#111111" fill-rule="evenodd" d="M10.778 0l3.35 6.792 7.493 1.096-5.421 5.284 1.279 7.465-6.7-3.527-6.701 3.527 1.28-7.465-5.422-5.284 7.492-1.096z"/></g></g><g transform="translate(108 0)"><g class="nc-icon-wrapper" fill="#111111"><path fill="#111111" fill-opacity=".787" fill-rule="evenodd" d="M11.158 0l3.35 6.792L22 7.888l-5.421 5.284 1.28 7.465-6.701-3.527-6.7 3.527 1.278-7.465-5.42-5.284 7.491-1.096z" opacity=".524"/></g></g><g transform="translate(130 0)"><g class="nc-icon-wrapper" fill="#111111"><path fill="#111111" fill-rule="evenodd" d="M22 39.064L12.21 43 9.174 32.873 0 27.653l6.007-8.692-1.65-10.444 10.525-.712L22 0l7.118 7.805 10.525.712-1.65 10.444L44 27.653l-9.175 5.22L31.791 43z"/></g></g><g transform="translate(174 0)"><g class="nc-icon-wrapper"><g fill="none" fill-rule="evenodd" stroke="#A7BF2E" stroke-linecap="round" stroke-linejoin="round"><path d="M3 1h16c1.1 0 2 .9 2 2v12c0 1.1-.9 2-2 2H3c-1.1 0-2-.9-2-2V3c0-1.1.9-2 2-2z"/><path d="M21 3l-10 7L1 3"/></g></g></g><g transform="translate(196 0)"><g class="nc-icon-wrapper"><g fill="none" fill-rule="evenodd" opacity=".723"><circle cx="16.5" cy="16.5" r="16" stroke="#B6B6B6" opacity=".263"/><text fill="#757575" font-family="AvenirNext-Regular, Avenir Next" font-size="22" letter-spacing="-.647"><tspan x="10" y="23">+</tspan></text></g></g></g><g transform="translate(229 0)"><g class="nc-icon-wrapper"><g fill="none" fill-rule="evenodd"><circle cx="72.5" cy="72.5" r="72.5" fill="#F2F2F2"/><path d="M105.834 96.199c-.767-3.404-6.562-24.541-31.855-24.541-27.372 0-31.908 24.748-31.951 24.999A2.006 2.006 0 0 0 44.004 99h59.992a2.005 2.005 0 0 0 1.838-2.801zm-59.259-1.211c1.742-5.632 7.977-19.317 27.403-19.317s25.662 13.685 27.404 19.317H46.575zm27.402-27.093c9.063 0 16.436-7.377 16.436-16.447C90.412 42.379 83.04 35 73.977 35c-9.06 0-16.43 7.379-16.43 16.447 0 9.071 7.37 16.448 16.43 16.448zm0-28.883c6.854 0 12.428 5.578 12.428 12.436 0 6.856-5.573 12.436-12.428 12.436-6.849 0-12.422-5.579-12.422-12.436 0-6.858 5.573-12.436 12.422-12.436z" fill="#1D1D1B" fill-rule="nonzero" opacity=".065"/></g></g></g><g transform="translate(374 0)"><g class="nc-icon-wrapper"><g fill="none" fill-rule="evenodd" opacity=".723"><circle cx="16.5" cy="16.5" r="16" stroke="#B6B6B6" opacity=".263"/><text fill="#757575" font-family="AvenirNext-Regular, Avenir Next" font-size="22" letter-spacing="-.647"><tspan x="10" y="23">+</tspan></text></g></g></g></svg>